# xmcd
#
# Track frame offsets:
#	150
#	18215
#	29240
#	45747
#	60645
#	72682
#	85197
#	101432
#	117010
#	134722
#	151342
#	170927
#	186347
#	200200
#	213037
#	227695
#	245390
#
# Disc length: 3467 seconds
#
# Revision: 0
# Processed by: cddbd v1.5.2PL0 Copyright (c) Steve Scherf et al.
# Submitted via: EasyCDDAExtractor 16.0.8.1
#
DISCID=fa0d8911
DTITLE=Lourenço and Lourival - Lourenço and Lourival - 2013 - Raízes do Campo
DYEAR=2013
DGENRE=Sertanejo
TTITLE0=Lua Branca
TTITLE1=Cachorro Manco
TTITLE2=Ele Prometeu Voltar
TTITLE3=Sonho De Caboclo
TTITLE4=Anjo Da Estrada
TTITLE5=Caboclo Nato
TTITLE6=Biografia Divina
TTITLE7=Reu Confesso
TTITLE8=Mãe Preta Maria
TTITLE9=Raizes Do Campo
TTITLE10=Pedido De Um Pai
TTITLE11=Fazenda Gameleira
TTITLE12=Virgem Negra Aparecida
TTITLE13=Anjo Negro
TTITLE14=Mundo Rural
TTITLE15=Mil Novecentos E Antigamente
TTITLE16=Vendedor De Linguiça
EXTD=
EXTT0=
EXTT1=
EXTT2=
EXTT3=
EXTT4=
EXTT5=
EXTT6=
EXTT7=
EXTT8=
EXTT9=
EXTT10=
EXTT11=
EXTT12=
EXTT13=
EXTT14=
EXTT15=
EXTT16=
PLAYORDER=
